<?xml version="1.0" standalone="no"?>
<!DOCTYPE svg PUBLIC "-//W3C//DTD SVG 20010904//EN"
 "http://www.w3.org/TR/2001/REC-SVG-20010904/DTD/svg10.dtd">
<svg version="1.0" xmlns="http://www.w3.org/2000/svg"
 width="485.000000pt" height="485.000000pt" viewBox="0 0 485.000000 485.000000"
 preserveAspectRatio="xMidYMid meet">
<metadata>
Created by potrace 1.11, written by Peter Selinger 2001-2013
</metadata>
<g transform="translate(0.000000,485.000000) scale(0.100000,-0.100000)"
fill="#000000" stroke="none">
<path d="M2230 4834 c-368 -43 -591 -105 -875 -244 -627 -308 -1100 -890
-1270 -1565 -56 -222 -69 -341 -69 -600 0 -259 13 -378 69 -600 170 -674 645
-1260 1270 -1565 171 -84 297 -131 469 -175 224 -57 331 -70 601 -70 270 0
377 13 601 70 852 218 1521 887 1739 1739 57 224 70 331 70 601 0 270 -13 377
-70 601 -219 853 -896 1529 -1745 1740 -203 50 -321 65 -550 69 -113 2 -221 1
-240 -1z m1144 -391 c60 -19 128 -84 146 -138 8 -23 11 -68 8 -116 -4 -69 -11
-91 -56 -184 -43 -87 -52 -116 -52 -159 0 -105 54 -150 372 -311 125 -64 269
-143 320 -177 404 -270 575 -729 436 -1168 -132 -416 -532 -813 -1117 -1109
-519 -263 -968 -374 -1571 -388 -398 -10 -670 33 -909 143 -483 222 -668 768
-465 1380 191 578 674 1169 1154 1414 25 13 100 69 168 126 359 300 833 567
1187 669 161 46 274 52 379 18z"/>
<path d="M3110 4263 c-121 -20 -341 -94 -575 -192 -113 -48 -608 -291 -602
-297 2 -2 46 12 98 30 419 150 872 153 1228 10 47 -19 86 -34 86 -34 1 0 -5
26 -13 58 -13 52 -13 67 4 162 10 58 18 132 18 164 -1 52 -4 62 -28 83 -24 20
-37 23 -109 22 -45 -1 -93 -4 -107 -6z"/>
<path d="M2469 3565 c-172 -28 -339 -80 -512 -160 l-77 -36 89 -45 c174 -87
346 -240 431 -383 150 -252 145 -522 -15 -841 -81 -160 -221 -355 -358 -497
-39 -40 -68 -73 -64 -73 3 0 65 24 139 54 517 207 934 456 1153 688 191 201
291 420 302 658 10 233 -49 357 -232 479 -87 58 -196 105 -324 138 -80 21
-124 26 -271 29 -119 2 -202 -1 -261 -11z"/>
<path d="M3760 3434 c41 -65 70 -133 92 -216 29 -106 31 -341 5 -455 -57 -248
-184 -478 -367 -662 -291 -294 -833 -554 -1445 -696 -149 -34 -475 -86 -475
-76 1 3 27 26 60 51 98 74 355 448 490 712 194 379 185 620 -35 895 -90 112
-301 303 -336 303 -32 0 -219 -141 -332 -249 -313 -303 -556 -697 -644 -1048
-24 -95 -27 -127 -28 -268 0 -150 2 -165 28 -240 38 -108 85 -181 161 -252
232 -218 747 -293 1421 -207 816 104 1709 636 1973 1177 131 267 119 553 -35
816 -45 78 -193 230 -283 293 -63 44 -255 158 -266 158 -3 0 4 -16 16 -36z"/>
</g>
</svg>
